<svg width="99" height="99" viewBox="0 0 99 99" fill="none" xmlns="http://www.w3.org/2000/svg">
<path d="M45.5191 12.2986C45.6927 11.3696 46.1856 10.5305 46.9127 9.92672C47.6397 9.32291 48.555 8.99239 49.5001 8.99239C50.4452 8.99239 51.3605 9.32291 52.0875 9.92672C52.8145 10.5305 53.3075 11.3696 53.481 12.2986L57.7374 34.8073C58.0397 36.4076 58.8173 37.8796 59.9689 39.0312C61.1205 40.1827 62.5925 40.9604 64.1927 41.2627L86.7015 45.519C87.6305 45.6926 88.4695 46.1855 89.0733 46.9126C89.6771 47.6396 90.0077 48.5549 90.0077 49.5C90.0077 50.4451 89.6771 51.3604 89.0733 52.0874C88.4695 52.8144 87.6305 53.3074 86.7015 53.4809L64.1927 57.7373C62.5925 58.0395 61.1205 58.8172 59.9689 59.9688C58.8173 61.1204 58.0397 62.5923 57.7374 64.1926L53.481 86.7013C53.3075 87.6304 52.8145 88.4694 52.0875 89.0732C51.3605 89.677 50.4452 90.0076 49.5001 90.0076C48.555 90.0076 47.6397 89.677 46.9127 89.0732C46.1856 88.4694 45.6927 87.6304 45.5191 86.7013L41.2628 64.1926C40.9605 62.5923 40.1828 61.1204 39.0313 59.9688C37.8797 58.8172 36.4077 58.0395 34.8074 57.7373L12.2987 53.4809C11.3697 53.3074 10.5306 52.8144 9.92683 52.0874C9.32302 51.3604 8.99249 50.4451 8.99249 49.5C8.99249 48.5549 9.32302 47.6396 9.92683 46.9126C10.5306 46.1855 11.3697 45.6926 12.2987 45.519L34.8074 41.2627C36.4077 40.9604 37.8797 40.1827 39.0313 39.0312C40.1828 37.8796 40.9605 36.4076 41.2628 34.8073L45.5191 12.2986Z" stroke="white" stroke-width="6.07468" stroke-linecap="round" stroke-linejoin="round"/>
<path d="M81.8983 9.00209V25.2012" stroke="white" stroke-width="6.07468" stroke-linecap="round" stroke-linejoin="round"/>
<path d="M89.9979 17.1017H73.7987" stroke="white" stroke-width="6.07468" stroke-linecap="round" stroke-linejoin="round"/>
<path d="M17.1017 89.9979C21.5749 89.9979 25.2012 86.3716 25.2012 81.8983C25.2012 77.425 21.5749 73.7987 17.1017 73.7987C12.6284 73.7987 9.00208 77.425 9.00208 81.8983C9.00208 86.3716 12.6284 89.9979 17.1017 89.9979Z" stroke="white" stroke-width="6.07468" stroke-linecap="round" stroke-linejoin="round"/>
</svg>
